<?xml version="1.0" encoding="utf-8"?>
<!-- Generator: Adobe Illustrator 26.3.1, SVG Export Plug-In . SVG Version: 6.00 Build 0)  -->
<svg version="1.1" id="Capa_1" xmlns="http://www.w3.org/2000/svg" xmlns:xlink="http://www.w3.org/1999/xlink" x="0px" y="0px"
	 viewBox="0 0 1366 334.3" style="enable-background:new 0 0 1366 334.3;" xml:space="preserve">
<style type="text/css">
	.st0{fill:#000022;}
	.st1{clip-path:url(#SVGID_00000084517708653493142740000010770201587367155639_);}
	.st2{fill:#FFFFFF;}
</style>
<g>
	<g id="H_LA" transform="translate(0 129)">
		<g>
			<path class="st0" d="M0,205.3V-125h89.1V2.4h131.6V-125h89.1v330.2h-89.1V74.8H89.1v130.5H0z"/>
			<path class="st0" d="M826.6-125v256.9h163.5v73.4H737.5V-125H826.6z"/>
			<path class="st0" d="M1234.4-125L1366,205.3h-94.9l-24.6-64h-128.9l-24.6,64h-89.6L1134.8-125H1234.4L1234.4-125z M1143.2,74.8
				h77.6l-37.7-97.5h-2.1L1143.2,74.8z"/>
		</g>
	</g>
	<g id="Capa_1-2">
		<g>
			<g id="Grupo_188" transform="translate(-1116.99 -561)">
				<g id="Grupo_177" transform="translate(1618 596)">
					<g id="Grupo_176">
						<g>
							<defs>
								<rect id="SVGID_1_" x="-145.5" y="-31" width="330.2" height="330.2"/>
							</defs>
							<clipPath id="SVGID_00000171706064757141263750000003774359009171605638_">
								<use xlink:href="#SVGID_1_"  style="overflow:visible;"/>
							</clipPath>
							<g style="clip-path:url(#SVGID_00000171706064757141263750000003774359009171605638_);">
								<g id="Grupo_175">
									<path id="Trazado_410" class="st0" d="M183.8,132.2v-0.6c0-4.2-3.3-7.6-7.5-7.8c-11.7-0.6-22.2-7.6-27.1-18.3
										c-1.8-3.9-6.5-5.7-10.5-3.9c-0.4,0.2-0.8,0.5-1.3,0.7c-5.4,3.8-11.7,5.8-18.3,5.8c-17.5,0-31.6-14.2-31.5-31.7
										c0-1,0-1.9,0.1-2.8c0.4-4.3-2.8-8.2-7.1-8.6c-0.5,0-1,0-1.4,0c-1,0.1-1.9,0.1-2.8,0.1c-17.5,0-31.6-14.1-31.6-31.5
										c0-6.5,2-12.9,5.8-18.3c2.5-3.6,1.7-8.5-1.9-11c-0.4-0.3-0.8-0.5-1.3-0.7C36.7-1.3,29.7-11.7,29.1-23.4
										c-0.2-4.2-3.6-7.4-7.8-7.5h-2.2c-90.9,0-164.6,73.7-164.6,164.7s73.7,164.7,164.7,164.7s164.7-73.7,164.7-164.7l0,0
										L183.8,132.2"/>
								</g>
							</g>
						</g>
					</g>
					<circle id="Elipse_104" class="st2" cx="19.6" cy="134.2" r="62.6"/>
				</g>
			</g>
			<path id="Trazado_411" class="st0" d="M595.4,1.2c-4.3-2.5-9.9-1-12.4,3.3c-2.5,4.3-1,9.9,3.3,12.4s9.9,1,12.4-3.3l0,0
				C601.2,9.2,599.8,3.7,595.4,1.2"/>
			<path id="Trazado_411-2" class="st0" d="M693.7,79.5c-4.3-2.5-9.9-1-12.4,3.3c-2.5,4.3-1,9.9,3.3,12.4c4.3,2.5,9.9,1,12.4-3.3
				l0,0C699.5,87.6,698,82,693.7,79.5"/>
		</g>
	</g>
</g>
</svg>
