<svg width="829" height="155" viewBox="0 0 829 155" fill="none" xmlns="http://www.w3.org/2000/svg">
<path d="M222.34 114.07C234.36 114.07 240.9 120.56 239.14 130.77C237.33 140.93 228.5 147.47 216.43 147.47H201.11L207.03 114.07H222.35H222.34ZM216.61 142.17C224.53 142.17 230.54 137.68 231.78 130.77C232.97 123.85 228.53 119.37 220.66 119.37H213.03L209.02 142.18H216.61V142.17Z" fill="#2014EE"/>
<path d="M274.49 114.07L273.58 119.37H254.07L252.64 127.48H270.91L269.96 132.73H251.73L250.06 142.18H269.53L268.62 147.48H242.14L248.06 114.08H274.49V114.07ZM259.94 110.44L264.23 102.14H268.38L263.27 110.44H259.93H259.94Z" fill="#2014EE"/>
<path d="M285.7 114.07L292.38 142.65L309.13 114.07H317.24L296.25 147.47H286.85L277.59 114.07H285.7Z" fill="#2014EE"/>
<path d="M348.02 114.07L347.11 119.37H327.6L326.17 127.48H344.44L343.49 132.73H325.26L323.59 142.18H343.06L342.15 147.48H315.67L321.59 114.08H348.02V114.07Z" fill="#2014EE"/>
<path d="M354.94 114.07H361.91L356.95 142.17H375.8L374.85 147.47H349.04L354.96 114.07H354.94Z" fill="#2014EE"/>
<path d="M380.37 130.77C382.18 120.32 391.77 113.35 403.8 113.35C415.83 113.35 422.98 120.32 421.12 130.77C419.31 141.22 409.72 148.19 397.69 148.19C385.66 148.19 378.51 141.22 380.37 130.77ZM413.77 130.77C415.01 123.76 410.96 118.79 402.84 118.79C394.72 118.79 388.96 123.75 387.72 130.77C386.48 137.78 390.54 142.75 398.65 142.75C406.76 142.75 412.53 137.79 413.77 130.77Z" fill="#2014EE"/>
<path d="M440.78 138.55H432.72L431.15 147.47H424.18L430.05 114.07H445.08C455.48 114.07 460.64 118.51 459.3 126.28C457.92 134.06 451.14 138.54 440.79 138.54L440.78 138.55ZM443.69 119.37H436.1L433.67 133.25H441.21C447.56 133.25 451.09 130.91 451.95 126.28C452.76 121.65 449.99 119.36 443.7 119.36L443.69 119.37Z" fill="#2014EE"/>
<path d="M477.76 138.55H469.7L468.13 147.47H461.16L467.03 114.07H482.06C492.46 114.07 497.62 118.51 496.28 126.28C494.9 134.06 488.12 138.54 477.77 138.54L477.76 138.55ZM480.67 119.37H473.08L470.65 133.25H478.19C484.54 133.25 488.07 130.91 488.93 126.28C489.74 121.65 486.97 119.36 480.68 119.36L480.67 119.37Z" fill="#2014EE"/>
<path d="M530.49 114.07L529.58 119.37H510.07L508.64 127.48H526.91L525.96 132.73H507.73L506.06 142.18H525.53L524.62 147.48H498.14L504.06 114.08H530.49V114.07Z" fill="#2014EE"/>
<path d="M536.83 114.07H543.8L540.6 132.35C539.41 138.93 542.27 142.75 548.38 142.75C554.49 142.75 558.69 138.98 559.88 132.35L563.08 114.07H570.05L566.81 132.49C565.09 142.18 557.7 148.19 547.44 148.19C537.18 148.19 531.89 142.18 533.6 132.49L536.84 114.07H536.83Z" fill="#2014EE"/>
<path d="M586.55 135.73H580.82L578.72 147.47H571.75L577.67 114.07H593.13C603.39 114.07 608.4 117.7 607.11 124.85C606.11 130.43 602.15 133.63 594.08 135.16L595.8 142.22H604.01L603.06 147.47H588.89L586.55 135.73ZM583.69 119.36L581.73 130.48H589.51C595.67 130.48 599.1 128.91 599.82 124.85C600.54 120.98 597.86 119.36 591.76 119.36H583.7H583.69Z" fill="#2014EE"/>
<path d="M638.28 135.73H632.55L630.45 147.47H623.48L629.4 114.07H644.86C655.12 114.07 660.13 117.7 658.84 124.85C657.84 130.43 653.88 133.63 645.81 135.16L647.53 142.22H655.74L654.79 147.47H640.62L638.28 135.73ZM635.42 119.36L633.46 130.48H641.24C647.4 130.48 650.83 128.91 651.55 124.85C652.27 120.98 649.59 119.36 643.49 119.36H635.43H635.42Z" fill="#2014EE"/>
<path d="M693.25 114.07L692.34 119.37H672.83L671.4 127.48H689.67L688.72 132.73H670.49L668.82 142.18H688.29L687.38 147.48H660.9L666.82 114.08H693.25V114.07Z" fill="#2014EE"/>
<path d="M720.49 114.07L729.99 147.47H722.21L720.35 140.12H702.6L698.16 147.47H690.33L711.61 114.07H720.49ZM719.34 134.87L715.24 118.65L705.46 134.87H719.34Z" fill="#2014EE"/>
<path d="M735.05 130.77C736.86 120.42 746.36 113.35 758.48 113.35C762.92 113.35 766.88 114.26 770.31 115.83L767.54 120.98C764.53 119.6 761.53 118.79 757.52 118.79C749.69 118.79 743.64 123.51 742.4 130.77C741.11 138.02 745.45 142.75 753.33 142.75C757.29 142.75 760.63 141.94 764.11 140.55L765.02 145.7C761.06 147.28 756.81 148.18 752.38 148.18C740.21 148.18 733.2 141.12 735.06 130.76L735.05 130.77Z" fill="#2014EE"/>
<path d="M773.27 114.07H809.1L808.19 119.37H793.73L788.82 147.47H781.81L786.77 119.37H772.31L773.27 114.07Z" fill="#2014EE"/>
<path d="M810.38 103.6H807.83V154.96H810.38V103.6Z" fill="#CFCDC1"/>
<path d="M0.929993 72.38C7.49999 70.56 11.03 68.44 11.03 62.68V13.39C11.03 7.63001 7.48999 5.51 0.929993 3.69V2.67999H41.94C63.76 2.67999 77.19 10.66 77.19 23.49C77.19 39.45 61.43 43.89 26.18 44.1V62.69C26.18 68.45 29.72 70.57 36.28 72.39V73.4H0.929993V72.39V72.38ZM61.03 23.49C61.03 11.37 48.61 4.70001 36.28 4.70001C29.51 4.70001 26.18 7.63001 26.18 13.39V42.08C38.71 41.57 61.03 37.53 61.03 23.49Z" fill="#4F46E5"/>
<path d="M134.47 0.549988H135.28L140.94 32.37H139.93C134.68 21.46 131.85 4.69 113.67 4.69C106.8 4.69 103.57 7.62 103.57 13.38V35.3H110.24C117.51 35.3 119.94 33.28 122.46 25.4H123.47V55.7H122.46C120.14 44.39 117.61 39.74 105.89 39.34L103.57 39.24V62.68C103.57 68.44 106.8 71.37 113.67 71.37C131.85 71.37 138.22 54.6 143.47 43.69H144.48L138.82 75.51H138.01C134.88 73.79 130.23 73.39 123.06 73.39H78.31V72.38C84.88 70.56 88.41 68.44 88.41 62.68V13.39C88.41 7.63001 84.87 5.51 78.31 3.69V2.67999H119.52C126.69 2.67999 131.34 2.28 134.47 0.559998V0.549988Z" fill="#4F46E5"/>
<path d="M211.35 2.67999C218.52 2.67999 223.17 2.28 226.3 0.559998H227.11L232.77 32.38H231.76C226.51 21.47 218.93 4.70001 208.83 4.70001C201.96 4.70001 198.73 7.63001 198.73 13.39V62.68C198.73 68.44 202.27 70.56 208.83 72.38V73.39H173.48V72.38C180.05 70.56 183.58 68.44 183.58 62.68V13.39C183.58 7.63001 180.35 4.70001 173.48 4.70001C163.38 4.70001 155.8 21.47 150.55 32.38H149.54L155.2 0.559998H156.01C159.14 2.28 163.79 2.67999 170.96 2.67999H211.37H211.35Z" fill="#4F46E5"/>
<path d="M275.6 43.79C271.76 43.99 267.52 44.09 263.07 44.09V62.68C263.07 68.44 266.61 70.56 273.17 72.38V73.39H237.82V72.38C244.39 70.56 247.92 68.44 247.92 62.68V13.39C247.92 7.63001 244.38 5.51 237.82 3.69V2.67999H278.83C300.65 2.67999 314.08 10.66 314.08 23.49C314.08 34.3 306.91 39.75 291.45 42.28L304.58 62.48C307 66.22 310.74 70.56 317.31 72.38V73.39H281.96V72.38C288.53 70.56 290.85 68.24 287.82 63.39L275.6 43.79ZM297.92 23.49C297.92 11.37 285.5 4.70001 273.17 4.70001C266.4 4.70001 263.07 7.63001 263.07 13.39V42.08C275.6 41.57 297.92 37.53 297.92 23.49Z" fill="#4F46E5"/>
<path d="M347.62 62.68C347.62 68.44 351.16 70.56 357.72 72.38V73.39H322.37V72.38C328.94 70.56 332.47 68.44 332.47 62.68V13.39C332.47 7.63001 328.93 5.51 322.37 3.69V2.67999H357.72V3.69C351.15 5.51 347.62 7.63001 347.62 13.39V62.68Z" fill="#4F46E5"/>
<path d="M388.03 34.9L407.63 17.53C416.42 9.75003 417.53 6.01003 406.22 3.69003V2.68002H436.02V3.69003C427.23 7.02003 421.27 11.47 415.41 15.91L404.7 24.09L429.55 62.47C431.97 66.21 435.71 70.55 442.28 72.37V73.38H406.93V72.37C413.5 70.55 415.92 68.23 412.79 63.38L393.4 32.67L388.05 36.71V62.67C388.05 68.43 391.59 70.55 398.15 72.37V73.38H362.8V72.37C369.37 70.55 372.9 68.43 372.9 62.67V13.38C372.9 7.62004 369.36 5.50002 362.8 3.68002V2.67004H398.15V3.68002C391.58 5.50002 388.05 7.62004 388.05 13.38V34.9H388.03Z" fill="#4F46E5"/>
<path d="M473.39 1.67004C495.21 1.67004 509.76 16.22 509.76 38.03C509.76 59.84 495.21 74.39 473.39 74.39C451.57 74.39 437.03 59.84 437.03 38.03C437.03 16.22 451.58 1.67004 473.39 1.67004ZM485.51 67.93C489.25 67.93 492.68 66.72 495.51 64.29C504.7 56.51 502.08 40.85 488.84 25C479.75 14.09 469.65 8.13004 461.26 8.13004C457.52 8.13004 454.09 9.34002 451.26 11.77C442.07 19.55 444.69 35.21 457.93 51.06C467.02 61.97 477.12 67.93 485.51 67.93Z" fill="#4F46E5"/>
<path d="M550.36 73.39H547.94L520.87 16.12C517.33 8.64 514.3 5.51001 507.74 3.70001V2.69H547.34V3.70001C540.77 5.52001 535.52 8.65 539.16 16.12L556.74 52.38L565.43 31.37C571.69 16.32 570.28 5.61 560.68 3.69V2.67999H592.5V3.69C585.73 5.91 579.77 12.38 571.49 29.55L550.38 73.39H550.36Z" fill="#4F46E5"/>
<path d="M597.54 20.25C597.54 8.23003 608.25 1.66003 625.72 1.66003C639.96 1.66003 649.96 6.00004 656.53 12.57L649.96 31.96H648.95C648.55 20.75 644.91 11.66 629.96 6.71002C626.02 5.40002 622.69 4.89005 619.86 4.89005C613.5 4.89005 610.26 7.82003 610.26 11.66C610.26 18.73 620.97 25.2 631.27 30.04C650.06 38.93 660.36 43.07 660.36 53.37C660.36 66.3 651.98 74.38 630.66 74.38C616.42 74.38 603.89 70.7401 597.53 64.2801L603.59 45.09H604.6C607.33 57.21 613.19 65.8 628.03 69.64C631.26 70.45 634.6 71.05 637.63 71.05C642.98 71.05 647.23 69.33 647.23 64.38C647.23 60.54 644.6 54.18 626.93 45.59C609.15 36.9 597.54 32.66 597.54 20.24V20.25Z" fill="#4F46E5"/>
<path d="M690.68 34.9L710.28 17.53C719.07 9.75003 720.18 6.01003 708.87 3.69003V2.68002H738.67V3.69003C729.88 7.02003 723.92 11.47 718.06 15.91L707.35 24.09L732.2 62.47C734.62 66.21 738.36 70.55 744.93 72.37V73.38H709.58V72.37C716.15 70.55 718.57 68.23 715.44 63.38L696.05 32.67L690.7 36.71V62.67C690.7 68.43 694.24 70.55 700.8 72.37V73.38H665.45V72.37C672.02 70.55 675.55 68.43 675.55 62.67V13.38C675.55 7.62004 672.01 5.50002 665.45 3.68002V2.67004H700.8V3.68002C694.23 5.50002 690.7 7.62004 690.7 13.38V34.9H690.68Z" fill="#4F46E5"/>
<path d="M795.84 42.17V62.68C795.84 68.44 799.38 70.56 805.94 72.38V73.39H770.59V72.38C777.16 70.56 780.69 68.44 780.69 62.68V47.63L759.17 16.11C754.52 9.24002 752.6 5.50003 746.04 3.69003V2.68002H785.64V3.69003C777.36 5.91003 774.13 10.76 777.66 15.81L793.72 39.14L797.76 31.36C805.23 17.02 806.35 5.60002 796.75 3.68002V2.67004H828.57V3.68002C821.8 5.90002 814.02 13.38 803.82 29.54L795.84 42.17Z" fill="#4F46E5"/>
</svg>
