<svg id="Calque_1" data-name="Calque 1" xmlns="http://www.w3.org/2000/svg" viewBox="0 0 378.56 177.02"><defs><style>.cls-1{fill:#fff;}.cls-2{fill:#2ba837;}.cls-3{fill:#2ba837;}</style></defs><title>logo_2</title><path class="cls-1" d="M369.84,180.48a11.28,11.28,0,1,0-11.28-11.28,11.28,11.28,0,0,0,11.28,11.28Z" transform="translate(-52.71 -91.48)"/><path class="cls-1" d="M399.3,202.1c13.84,0,25.06-9.82,25.06-21.93s-11.22-21.94-25.06-21.94-25.07,9.82-25.07,21.94,11.22,21.93,25.07,21.93Z" transform="translate(-52.71 -91.48)"/><path class="cls-1" d="M404.62,213.07c13.85,0,25.07-9.82,25.07-21.94s-11.22-21.93-25.07-21.93-25.07,9.82-25.07,21.93,11.23,21.94,25.07,21.94Z" transform="translate(-52.71 -91.48)"/><path class="cls-2" d="M194.24,148.49c12,1.38,14.3-17.26,2.28-18.64s-14.3,17.26-2.28,18.64Z" transform="translate(-52.71 -91.48)"/><path class="cls-2" d="M293.57,206c12.67-8.35,16.85-24.67,19.69-38.63,3.39-16.65,3.8-33.72,5.65-50.56.9-8.18-11.79-9.39-12.69-1.22-1.6,14.53-2.29,29.13-4.44,43.6-1.89,12.7-4.76,29.36-16.32,37-6.87,4.53,1.32,14.32,8.11,9.84Z" transform="translate(-52.71 -91.48)"/><path class="cls-2" d="M292.9,148.39c16.07-2,32.3-.86,48.45-1.61,8.18-.38,5.91-12.93-2.2-12.56-16.17.75-32.35-.43-48.45,1.61-8.16,1-5.94,13.59,2.2,12.56Z" transform="translate(-52.71 -91.48)"/><path class="cls-2" d="M110.76,225.83c-12.75.59-25.84.65-38.48-1.32-8.13-1.27-9.3,11.43-1.22,12.69,13.79,2.15,28,1.83,41.9,1.19,8.18-.37,5.91-12.93-2.2-12.56Z" transform="translate(-52.71 -91.48)"/><path class="cls-2" d="M321.68,223.7c-26.38.47-52.75,1.09-79.12,1.5s-53.73,2.65-80.17.81c-8.19-.57-9.42,12.12-1.22,12.69,25.29,1.76,51.21-.39,76.56-.75,27.58-.39,55.15-1.07,82.73-1.56,8.12-.14,9.43-12.83,1.22-12.69Z" transform="translate(-52.71 -91.48)"/><path class="cls-2" d="M328.29,176.42c-2.2,6.63-5.36,13.45-10.67,18.17-1.48,1.32-3.52,2.66-4.68.5-1.85-3.48-2.85-7.07-5.19-10.32-4.65-6.47-14,.95-10.25,7.45a6.58,6.58,0,0,0-8.16,1.54c-1.94,2.24-3,4.39-3.14.82a41.33,41.33,0,0,1,.79-8.34,136.38,136.38,0,0,0,5.48-24.39c.92-7.47-8.69-8.82-11.86-3.36a5,5,0,0,0-5.05-3.05c-17.19.23-32.43,20.41-30.71,37.14a6.31,6.31,0,0,0-2.66,2.14c-1.41,1.9-4.18,3.83-4.1,6.19-.13-3.92,1-8.37,1.45-12.25,1-8.62,5.94-16,3.92-24.91a6.47,6.47,0,0,0-9-4.69c-7.26,3.14-11.53,11.62-15.86,17.87-4.06,5.87-8.59,11.38-13,17,1-3,2.59-5.89,3.65-8.42,3.53-8.43,8.52-16.3,10.05-25.41,1.36-8.11-11.34-9.27-12.69-1.22-.78,4.61-8,17.36-12.14,29.27-1.3,1.7-2.54,3.46-3.82,5.17a53.65,53.65,0,0,1-3.9,4.74c1.69-11.36,6.34-21.92,9.16-33,2-7.88-9.91-12.49-11.92-4.54-2.44,9.66-6.5,18.9-8.57,28.66-1.7,2.28-3.36,4.59-5.15,6.8-4.6,5.68-2.82-.14-1.77-4,2.52-9.43,6.57-17.58,6.57-27.61,0-8.53-6.49-16.18-13.56-17.6a38.8,38.8,0,0,0,.1-7.39c-.51-5.6-8.48-6.92-11.45-2.63-5.67,8.18-7.75,19.72-16.52,25.18-3.56,2.22-7.52,4.16-10.87,6.72-4-4-9-7-14.28-9.77-8.19-4.35-25.75-11.57-25.35-22.88.22-6.56,9.64-11.31,15-12.55s11.29-.55,16.7.24c15.49,2.27,7.25,16.94,1.73,25.53-4.43,6.91,5.9,14.38,10.34,7.46,10-15.55,17.09-39-6.94-44.86-10.31-2.51-21.37-2.49-31.3,1.41-9.54,3.74-20,14.61-18.26,25.7,1.64,10.55,9.4,17.38,17.89,23.05,9.12,6.1,23.38,9.67,28.56,20,7.33,14.64-18.12,18-26.71,18.22-6.51.2-14-.55-18.59-5.62a26.24,26.24,0,0,1-6.06-18.9c.84-8.19-11.85-9.4-12.69-1.22-1,10.15,2.89,20.2,8.92,28.23,6.75,9,19.56,10.43,29.91,10.11,18-.54,45.54-10.18,37.69-33.59,2.72-3.26,8.91-5.86,13.25-8.27-.13.43-.26.87-.38,1.3-2.78,9.93-5.78,19.81-8.8,29.67-6,19.77-11.8,39.37-14.44,59.93-1,8.16,11.64,9.35,12.69,1.22,2.79-21.73,9.31-42.27,15.66-63.13,3.34-11,6.56-22.05,9.55-33.15.44-1.62.91-3.26,1.37-4.91a7.29,7.29,0,0,0,.64-.91c3-5.24,3.43,5.7,3.26,7.84-.42,5.11-2.54,9.91-4.28,14.67-2,5.6-5.28,15-1.88,20.74,5.83,9.8,12.94,8.4,19.26,3.62a11.55,11.55,0,0,0,2.32,2.64c7.12,6,11.9,3.21,15.86-1.48,1.46,1.91,3.82,3.16,7.37,3.46,7,.6,12.6-7.68,16.26-12.48,2.75-3.59,5.71-7,8.43-10.61.44-.58.89-1.25,1.35-2l0,.14c-.94,5.83-2.89,14-.27,19.61,5.6,12.08,17.17,4.94,23.66-2.12a23.51,23.51,0,0,0,4.79,4c9.08,5.79,16.21,3.34,21.72-2.86,5.72,7.82,17.94.93,22.93-4.84a6.43,6.43,0,0,0,1.25-2.16c1.07,2.66,2.25,5.25,4.71,7.08A14.72,14.72,0,0,0,320,207.91c10.59-4.4,16.83-16.66,20.25-26.95,2.6-7.79-9.32-12.34-11.91-4.54Zm-54.73,12.16c-2.06,4.64-4.79,8.47-8.53,10.29-2.23,1.09-5.58-2.25-6.53-3.81-2.17-3.55-.95-8.08.33-11.68,2.06-5.76,8.52-15.16,15.51-15.25a6.52,6.52,0,0,0,4-1.33c-1.83,7-4.09,14.48-4.74,21.78Z" transform="translate(-52.71 -91.48)"/><path class="cls-3" d="M356.15,183.43a33.21,33.21,0,0,0-7.59-5.29,15.78,15.78,0,0,0-2.56-1,14.57,14.57,0,0,1,2.25,7.36c.19,5.08-2.17,10.15-4.42,14.93-1.64,3.48-4.37,8.18-3.74,11.87a6.78,6.78,0,0,0,5.84,5.59,13.58,13.58,0,0,0,10.21-2.18c3.5-2.46,6-6.87,7.17-10.78,2.5-8.54-1.53-15.55-7.16-20.51Z" transform="translate(-52.71 -91.48)"/><path class="cls-3" d="M365.76,141.22a48.4,48.4,0,0,1-11.54,6.89,24.31,24.31,0,0,1-3.83,1.18,21.31,21.31,0,0,0,4-10.45c.8-7.35-2.11-15-4.88-22.12-2-5.22-5.5-12.31-4.21-17.61,1.08-4.42,4.6-7,9.05-7.5A19.75,19.75,0,0,1,369,95.82c4.82,3.92,8,10.59,9.28,16.37,2.76,12.65-3.81,22.42-12.5,29Z" transform="translate(-52.71 -91.48)"/><path class="cls-3" d="M409.29,175.4c-1.68,3.66-3.34,7.39-4.72,11.21,2.93.07,6.08.06,8.42-1.32,4.1-2.41-.2-7.87-3.7-9.89Z" transform="translate(-52.71 -91.48)"/><path class="cls-3" d="M431.26,189.81c.19-10.11-5.75-20.65-12.81-27.77-15.44-15.59-38.24-16-59-10.72-8.49,2.18-17,4.79-24.74,8.87a50,50,0,0,0-6.55,4,45,45,0,0,1,20.64,4.47c12,5.87,19.67,16.9,26.92,27.34,5.26,7.59,11.49,18.9,21,22.17,8,2.74,16.22.5,22.53-5,6.93-6,11.81-14.36,12-23.38Zm-60.15-11.52c-9.92-1.14-8.06-16.53,1.88-15.39s8.06,16.53-1.88,15.39Zm42.43,18.94c1.42,2.26,3,4.39,4.55,6.58,2.45,3.53-2.61,8-5.1,4.43-3.12-4.5-7.39-9.4-8.58-15l-1.88,0a43.8,43.8,0,0,0-1.21,7.73c-.27,4.35-7,4-6.74-.38a56.94,56.94,0,0,1,3.34-15.36c-2.65-.92-5.26-1.91-7.9-2.86-1.58,3.35-3.19,6.69-4.77,10-1.83,3.9-8.24,1.78-6.39-2.16,2-4.2,4-8.38,6-12.59a3.83,3.83,0,0,1,.86-1.87c2.32-5.06,4.51-10.17,6.34-15.45a3.16,3.16,0,0,1,3.68-2.15,3.49,3.49,0,0,1,1.36,0c4.6,1,9.3,1.45,13.8,2.88,4.14,1.32,2,7.71-2.17,6.39a93.37,93.37,0,0,0-11.23-2.37c-1.4,3.76-2.95,7.44-4.6,11.09,2.5.91,5,1.84,7.51,2.71,1.19-2.83,2.47-5.63,3.73-8.4a3.92,3.92,0,0,1,.6-.9,2.65,2.65,0,0,1,3.18-1.77c8,1.48,16.47,10.61,12.36,19.08-1.78,3.69-5.2,5.2-9,5.83a22,22,0,0,0,2.28,4.4Z" transform="translate(-52.71 -91.48)"/><path class="cls-2" d="M127.5,195.18s-4.89,11.18-26,15.29c0,0,17.73-3.81,26-15.29Z" transform="translate(-52.71 -91.48)"/><path class="cls-2" d="M197.1,131s-8.87-.64-9.43,9.68c0,0,.08-7.83,9.43-9.68Z" transform="translate(-52.71 -91.48)"/><path class="cls-2" d="M277,156.82s-17-.46-27.49,19.59c0,0,8.46-16.83,27.49-19.59Z" transform="translate(-52.71 -91.48)"/><path class="cls-2" d="M257.87,196.12s2.92,4.94,6.95,4.06,8.9-8.88,8.9-8.88-8.09,16.72-15.85,4.82Z" transform="translate(-52.71 -91.48)"/><path class="cls-2" d="M289.5,137.21s7.61-1.39,48.15-1.73c0,0-31.69.77-48.15,1.73Z" transform="translate(-52.71 -91.48)"/><path class="cls-2" d="M58.65,170.65s-6.7-1-4.79,10.27c0,0-2-8.1,4.79-10.27Z" transform="translate(-52.71 -91.48)"/><path class="cls-2" d="M237.66,159.75s8.4.67,3.6,18.41c.59-6.15,3.52-13.21-3.6-18.41Z" transform="translate(-52.71 -91.48)"/><path class="cls-2" d="M214,154.52s7.78-.3,2.91,12.27c.15-4.5,3.38-8.7-2.91-12.27Z" transform="translate(-52.71 -91.48)"/><path class="cls-2" d="M158.9,136.38s-4.19-1.95-6.86.83-8,15.53-8,15.53,6.34-20.42,14.84-16.36Z" transform="translate(-52.71 -91.48)"/><path class="cls-2" d="M189.07,158.11s-2.09-.68-3.32,2.3-6.2,21-6.2,21,5.08-23.15,9.52-23.3Z" transform="translate(-52.71 -91.48)"/><path class="cls-2" d="M128.35,223.77s-6.89,23.33-8.12,39,4-35.46,8.12-39Z" transform="translate(-52.71 -91.48)"/><path class="cls-2" d="M313.77,111.45s-4.76-1.09-5.77,2.84-1.83,19-1.83,19,.39-25.36,7.6-21.85Z" transform="translate(-52.71 -91.48)"/><path class="cls-2" d="M304.47,148.1s-2,28.46-11.81,43c0,0,9.43-5.66,11.81-43Z" transform="translate(-52.71 -91.48)"/><path class="cls-2" d="M311,193.75s1.28,4.88,5.47,3.06-4.53,4.33-5.47-3.06Z" transform="translate(-52.71 -91.48)"/><path class="cls-1" d="M336.39,173.63s-4.64-1.29-6.16,1.32a86.75,86.75,0,0,0-3.92,8.83s2.86-12.21,10.08-10.15Z" transform="translate(-52.71 -91.48)"/><path class="cls-2" d="M185.69,196.73s-.6,3.77,2.44,1.94-3.38,4.55-2.44-1.94Z" transform="translate(-52.71 -91.48)"/><path class="cls-2" d="M205.45,192.4s-1.59,4.5,2.16.73c0,0-4.21,5.21-2.16-.73Z" transform="translate(-52.71 -91.48)"/><path class="cls-2" d="M238.71,201s3.91-5.45,4.82-6.1-3.91,5.13-4.82,6.1Z" transform="translate(-52.71 -91.48)"/><path class="cls-2" d="M166.76,196.36s-1.25,5.65,3.6.68c0,0-4.53,6-3.6-.68Z" transform="translate(-52.71 -91.48)"/><path class="cls-2" d="M161.48,147.5s11.16,2.27,13,17.19c0,0-1.93-13.38-13-17.19Z" transform="translate(-52.71 -91.48)"/><path class="cls-2" d="M163.67,228.08s135.8-2.9,145.9-2.32,12.79-.86,12.79-.86-141.24,4-158.69,3.18Z" transform="translate(-52.71 -91.48)"/><path class="cls-2" d="M74.76,226.32s29.18,1.83,34.6,1.2-16.28,2-34.6-1.2Z" transform="translate(-52.71 -91.48)"/><path class="cls-2" d="M113.3,162.28s15.14,8.22,16.67,21.81a37.74,37.74,0,0,0-16.67-21.81Z" transform="translate(-52.71 -91.48)"/><path class="cls-1" d="M357.9,92.83s-9.86-1-11.78,8-.57-7.25,11.78-8Z" transform="translate(-52.71 -91.48)"/><path class="cls-1" d="M333.69,162.26s25.08-14.52,54.94-12.5c0,0-45.23,2-54.94,12.5Z" transform="translate(-52.71 -91.48)"/><path class="cls-1" d="M353.29,182.77s.3.19.79.54c3.33,2.4,14.64,12.57,4.17,28.61,0,0,10.81-17-5-29.15Z" transform="translate(-52.71 -91.48)"/></svg>